<svg xmlns="http://www.w3.org/2000/svg" width="720" height="420" viewBox="0 0 720 420">
  <rect width="100%" height="100%" fill="#fffdf8"/>
  <line x1="64" y1="368" x2="696" y2="368" stroke="#222" stroke-width="1.5"/>
  <line x1="64" y1="36" x2="64" y2="368" stroke="#222" stroke-width="1.5"/>
  <polyline fill="none" stroke="#14532d" stroke-width="3" points="64.00,367.84 64.32,367.86 64.63,367.89 64.95,367.91 65.26,367.94 65.58,367.95 65.90,367.96 66.21,367.98 66.53,367.98 66.84,367.99 67.16,367.99 67.48,368.00 67.79,367.99 68.11,367.99 68.42,367.98 68.74,367.98 69.06,367.97 69.37,367.96 69.69,367.95 70.00,367.93 70.32,367.92 70.64,367.90 70.95,367.88 71.27,367.86 71.58,367.83 71.90,367.81 72.22,367.78 72.53,367.75 72.85,367.72 73.16,367.68 73.48,367.64 73.80,367.60 74.11,367.54 74.43,367.49 74.74,367.44 75.06,367.38 75.38,367.33 75.69,367.28 76.01,367.21 76.32,367.16 76.64,367.11 76.96,367.05 77.27,367.00 77.59,366.95 77.90,366.90 78.22,366.86 78.54,366.81 78.85,366.78 79.17,366.73 79.48,366.69 79.80,366.66 80.12,366.62 80.43,366.59 80.75,366.56 81.06,366.53 81.38,366.50 81.70,366.47 82.01,366.43 82.33,366.41 82.64,366.38 82.96,366.34 83.28,366.31 83.59,366.27 83.91,366.24 84.22,366.21 84.54,366.18 84.86,366.14 85.17,366.10 85.49,366.07 85.80,366.04 86.12,366.00 86.44,365.97 86.75,365.95 87.07,365.92 87.38,365.90 87.70,365.86 88.02,365.83 88.33,365.80 88.65,365.77 88.96,365.72 89.28,365.67 89.60,365.62 89.91,365.55 90.23,365.49 90.54,365.41 90.86,365.32 91.18,365.23 91.49,365.14 91.81,365.03 92.12,364.91 92.44,364.80 92.76,364.68 93.07,364.54 93.39,364.39 93.70,364.24 94.02,364.07 94.34,363.88 94.65,363.68 94.97,363.46 95.28,363.21 95.60,362.93 95.92,362.63 96.23,362.29 96.55,361.93 96.86,361.52 97.18,361.07 97.50,360.57 97.81,360.00 98.13,359.37 98.44,358.68 98.76,357.93 99.08,357.11 99.39,356.23 99.71,355.22 100.02,354.11 100.34,352.96 100.66,351.71 100.97,350.39 101.29,348.99 101.60,347.51 101.92,345.97 102.24,344.42 102.55,342.82 102.87,341.25 103.18,339.68 103.50,338.18 103.82,336.71 104.13,335.35 104.45,334.05 104.76,332.92 105.08,331.83 105.40,330.94 105.71,330.12 106.03,329.45 106.34,328.82 106.66,328.34 106.98,327.90 107.29,327.63 107.61,327.36 107.92,327.20 108.24,327.06 108.56,326.96 108.87,326.91 109.19,326.81 109.50,326.72 109.82,326.61 110.14,326.51 110.45,326.36 110.77,326.23 111.08,326.09 111.40,325.98 111.72,325.91 112.03,325.88 112.35,325.81 112.66,325.85 112.98,326.03 113.30,326.39 113.61,326.80 113.93,327.23 114.24,327.71 114.56,328.14 114.88,328.61 115.19,329.11 115.51,329.68 115.82,330.30 116.14,330.97 116.46,331.68 116.77,332.44 117.09,333.22 117.40,334.02 117.72,334.85 118.04,335.66 118.35,336.46 118.67,337.22 118.98,337.95 119.30,338.65 119.62,339.29 119.93,339.89 120.25,340.43 120.56,340.94 120.88,341.42 121.20,341.87 121.51,342.29 121.83,342.67 122.14,343.02 122.46,343.36 122.78,343.66 123.09,343.94 123.41,344.19 123.72,344.44 124.04,344.64 124.36,344.83 124.67,344.99 124.99,345.14 125.30,345.27 125.62,345.39 125.94,345.51 126.25,345.61 126.57,345.71 126.88,345.82 127.20,345.93 127.52,346.06 127.83,346.20 128.15,346.36 128.46,346.55 128.78,346.73 129.10,346.96 129.41,347.20 129.73,347.47 130.04,347.75 130.36,348.03 130.68,348.32 130.99,348.61 131.31,348.90 131.62,349.19 131.94,349.47 132.26,349.74 132.57,350.00 132.89,350.22 133.20,350.42 133.52,350.59 133.84,350.75 134.15,350.87 134.47,350.97 134.78,351.05 135.10,351.11 135.42,351.15 135.73,351.17 136.05,351.18 136.36,351.19 136.68,351.21 137.00,351.23 137.31,351.27 137.63,351.35 137.94,351.44 138.26,351.57 138.58,351.73 138.89,351.94 139.21,352.17 139.52,352.42 139.84,352.68 140.16,352.96 140.47,353.24 140.79,353.52 141.10,353.79 141.42,354.05 141.74,354.28 142.05,354.50 142.37,354.69 142.68,354.84 143.00,354.97 143.32,355.06 143.63,355.16 143.95,355.25 144.26,355.34 144.58,355.44 144.90,355.55 145.21,355.67 145.53,355.80 145.84,355.96 146.16,356.11 146.48,356.26 146.79,356.41 147.11,356.54 147.42,356.65 147.74,356.75 148.06,356.83 148.37,356.89 148.69,356.93 149.00,356.94 149.32,356.95 149.64,356.94 149.95,356.93 150.27,356.91 150.58,356.87 150.90,356.83 151.22,356.79 151.53,356.74 151.85,356.67 152.16,356.60 152.48,356.52 152.80,356.40 153.11,356.26 153.43,356.05 153.74,355.80 154.06,355.45 154.38,354.99 154.69,354.38 155.01,353.59 155.32,352.58 155.64,351.30 155.96,349.73 156.27,347.82 156.59,345.54 156.90,342.88 157.22,339.88 157.54,336.50 157.85,332.78 158.17,328.71 158.48,324.41 158.80,319.83 159.12,315.07 159.43,310.16 159.75,305.15 160.06,300.04 160.38,294.91 160.70,289.72 161.01,284.51 161.33,279.27 161.64,273.98 161.96,268.63 162.28,263.25 162.59,257.81 162.91,252.32 163.22,246.75 163.54,241.15 163.86,235.46 164.17,229.76 164.49,224.02 164.80,218.26 165.12,212.47 165.44,206.70 165.75,200.92 166.07,195.16 166.38,189.44 166.70,183.76 167.02,178.15 167.33,172.65 167.65,167.21 167.96,161.90 168.28,156.71 168.60,151.66 168.91,146.74 169.23,141.94 169.54,137.32 169.86,132.94 170.18,128.72 170.49,124.71 170.81,120.89 171.12,117.25 171.44,113.85 171.76,110.67 172.07,107.70 172.39,104.95 172.70,102.37 173.02,100.01 173.34,97.82 173.65,95.85 173.97,94.08 174.28,92.43 174.60,90.98 174.92,89.51 175.23,88.04 175.55,86.56 175.86,85.08 176.18,83.60 176.50,82.13 176.81,80.66 177.13,79.21 177.44,77.77 177.76,76.35 178.08,74.95 178.39,73.57 178.71,72.23 179.02,70.92 179.34,69.64 179.66,68.41 179.97,67.23 180.29,66.09 180.60,65.01 180.92,63.99 181.24,63.04 181.55,62.15 181.87,61.30 182.18,60.56 182.50,59.90 182.82,59.33 183.13,58.85 183.45,58.47 183.76,58.21 184.08,58.02 184.40,57.93 184.71,57.79 185.03,57.69 185.34,57.59 185.66,57.49 185.98,57.41 186.29,57.31 186.61,57.20 186.92,57.10 187.24,57.00 187.56,56.89 187.87,56.79 188.19,56.68 188.50,56.55 188.82,56.45 189.14,56.34 189.45,56.24 189.77,56.13 190.08,56.06 190.40,55.96 190.72,55.89 191.03,55.82 191.35,55.75 191.66,55.68 191.98,55.61 192.30,55.55 192.61,55.48 192.93,55.41 193.24,55.35 193.56,55.28 193.88,55.22 194.19,55.12 194.51,55.02 194.82,54.93 195.14,54.83 195.46,54.74 195.77,54.65 196.09,54.55 196.40,54.42 196.72,54.33 197.04,54.25 197.35,54.13 197.67,54.04 197.98,53.92 198.30,53.84 198.62,53.78 198.93,53.70 199.25,53.62 199.56,53.60 199.88,53.56 200.20,53.51 200.51,53.52 200.83,53.53 201.14,53.50 201.46,53.48 201.78,53.47 202.09,53.48 202.41,53.45 202.72,53.43 203.04,53.41 203.36,53.38 203.67,53.33 203.99,53.30 204.30,53.24 204.62,53.18 204.94,53.13 205.25,53.06 205.57,52.97 205.88,52.91 206.20,52.82 206.52,52.72 206.83,52.63 207.15,52.54 207.46,52.44 207.78,52.35 208.10,52.26 208.41,52.16 208.73,52.07 209.04,51.98 209.36,51.89 209.68,51.79 209.99,51.74 210.31,51.64 210.62,51.58 210.94,51.53 211.26,51.48 211.57,51.42 211.89,51.39 212.20,51.32 212.52,51.30 212.84,51.29 213.15,51.27 213.47,51.24 213.78,51.25 214.10,51.23 214.42,51.21 214.73,51.20 215.05,51.17 215.36,51.15 215.68,51.11 216.00,51.06 216.31,51.00 216.63,50.92 216.94,50.84 217.26,50.75 217.58,50.66 217.89,50.54 218.21,50.46 218.52,50.34 218.84,50.25 219.16,50.17 219.47,50.05 219.79,49.96 220.10,49.87 220.42,49.78 220.74,49.71 221.05,49.62 221.37,49.53 221.68,49.45 222.00,49.40 222.32,49.35 222.63,49.30 222.95,49.26 223.26,49.20 223.58,49.14 223.90,49.09 224.21,49.06 224.53,49.01 224.84,48.96 225.16,48.91 225.48,48.86 225.79,48.81 226.11,48.74 226.42,48.66 226.74,48.58 227.06,48.52 227.37,48.49 227.69,48.44 228.00,48.34 228.32,48.27 228.64,48.24 228.95,48.22 229.27,48.20 229.58,48.16 229.90,48.13 230.22,48.11 230.53,48.08 230.85,48.08 231.16,48.21 231.48,48.26 231.80,48.27 232.11,48.30 232.43,48.33 232.74,48.36 233.06,48.45 233.38,48.60 233.69,48.74 234.01,48.83 234.32,48.86 234.64,49.02 234.96,49.30 235.27,49.45 235.59,49.57 235.90,49.70 236.22,49.88 236.54,50.06 236.85,50.19 237.17,50.29 237.48,50.59 237.80,51.20 238.12,51.52 238.43,51.74 238.75,52.06 239.06,52.39 239.38,52.70 239.70,52.94 240.01,53.18 240.33,53.35 240.64,53.43 240.96,53.62 241.28,53.88 241.59,53.92 241.91,53.87 242.22,53.81 242.54,53.80 242.86,53.78 243.17,53.75 243.49,53.68 243.80,53.66 244.12,53.62 244.44,53.58 244.75,53.59 245.07,53.58 245.38,53.63 245.70,53.62 246.02,53.59 246.33,53.57 246.65,53.53 246.96,53.42 247.28,53.34 247.60,53.23 247.91,53.14 248.23,52.97 248.54,52.82 248.86,52.65 249.18,52.48 249.49,52.29 249.81,52.06 250.12,51.89 250.44,51.66 250.76,51.45 251.07,51.19 251.39,51.02 251.70,50.83 252.02,50.60 252.34,50.38 252.65,50.20 252.97,49.98 253.28,49.76 253.60,49.57 253.92,49.38 254.23,49.17 254.55,49.01 254.86,48.82 255.18,48.63 255.50,48.42 255.81,48.24 256.13,48.03 256.44,47.78 256.76,47.57 257.08,47.32 257.39,47.11 257.71,46.88 258.02,46.66 258.34,46.38 258.66,46.16 258.97,45.93 259.29,45.71 259.60,45.44 259.92,45.19 260.24,44.94 260.55,44.72 260.87,44.47 261.18,44.26 261.50,44.07 261.82,43.87 262.13,43.68 262.45,43.50 262.76,43.26 263.08,43.10 263.40,42.99 263.71,42.88 264.03,42.77 264.34,42.61 264.66,42.45 264.98,42.30 265.29,42.16 265.61,42.00 265.92,41.87 266.24,41.73 266.56,41.60 266.87,41.43 267.19,41.32 267.50,41.18 267.82,41.06 268.14,40.92 268.45,40.75 268.77,40.60 269.08,40.43 269.40,40.25 269.72,40.10 270.03,39.88 270.35,39.73 270.66,39.52 270.98,39.36 271.30,39.17 271.61,38.97 271.93,38.81 272.24,38.61 272.56,38.42 272.88,38.24 273.19,38.04 273.51,37.88 273.82,37.71 274.14,37.54 274.46,37.41 274.77,37.24 275.09,37.08 275.40,36.98 275.72,36.87 276.04,36.77 276.35,36.70 276.67,36.60 276.98,36.53 277.30,36.50 277.62,36.48 277.93,36.44 278.25,36.37 278.56,36.33 278.88,36.27 279.20,36.25 279.51,36.23 279.83,36.22 280.14,36.20 280.46,36.15 280.78,36.14 281.09,36.10 281.41,36.08 281.72,36.06 282.04,36.07 282.36,36.08 282.67,36.06 282.99,36.02 283.30,36.00 283.62,36.01 283.94,36.04 284.25,36.08 284.57,36.14 284.88,36.12 285.20,36.10 285.52,36.08 285.83,36.12 286.15,36.15 286.46,36.13 286.78,36.12 287.10,36.12 287.41,36.16 287.73,36.22 288.04,36.22 288.36,36.21 288.68,36.21 288.99,36.27 289.31,36.34 289.62,36.30 289.94,36.20 290.26,36.16 290.57,36.22 290.89,36.28 291.20,36.28 291.52,36.31 291.84,36.33 292.15,36.41 292.47,36.48 292.78,36.50 293.10,36.50 293.42,36.60 293.73,36.83 294.05,37.08 294.36,37.25 294.68,37.43 295.00,37.70 295.31,38.23 295.63,38.80 295.94,39.33 296.26,39.81 296.58,40.26 296.89,40.73 297.21,41.36 297.52,42.20 297.84,43.33 298.16,44.42 298.47,45.20 298.79,45.88 299.10,46.75 299.42,47.94 299.74,49.16 300.05,50.01 300.37,50.60 300.68,51.11 301.00,51.72 301.32,52.44 301.63,53.08 301.95,53.69 302.26,54.33 302.58,54.71 302.90,54.87 303.21,55.03 303.53,55.15 303.84,55.28 304.16,55.40 304.48,55.49 304.79,55.58 305.11,55.45 305.42,55.54 305.74,55.41 306.06,55.25 306.37,55.12 306.69,55.21 307.00,55.08 307.32,54.98 307.64,54.88 307.95,55.01 308.27,55.16 308.58,55.10 308.90,55.03 309.22,55.00 309.53,54.93 309.85,54.86 310.16,55.05 310.48,54.99 310.80,54.92 311.11,54.85 311.43,55.01 311.74,54.94 312.06,55.10 312.38,55.03 312.69,54.93 313.01,54.90 313.32,55.05 313.64,54.99 313.96,54.95 314.27,54.89 314.59,55.07 314.90,55.04 315.22,55.01 315.54,54.97 315.85,54.97 316.17,54.94 316.48,54.90 316.80,54.65 317.12,54.62 317.43,54.58 317.75,54.55 318.06,54.51 318.38,54.48 318.70,54.71 319.01,54.46 319.33,54.42 319.64,54.39 319.96,54.36 320.28,54.37 320.59,54.36 320.91,54.11 321.22,54.08 321.54,54.31 321.86,54.31 322.17,54.02 322.49,54.03 322.80,53.99 323.12,53.97 323.44,53.91 323.75,53.84 324.07,54.01 324.38,53.91 324.70,53.85 325.02,53.75 325.33,53.92 325.65,53.79 325.96,53.73 326.28,53.87 326.60,53.51 326.91,53.68 327.23,53.55 327.54,53.49 327.86,53.39 328.18,53.34 328.49,53.50 328.81,53.40 329.12,53.60 329.44,53.53 329.76,53.51 330.07,53.74 330.39,53.49 330.70,53.72 331.02,53.73 331.34,53.73 331.65,53.95 331.97,53.96 332.28,53.93 332.60,54.16 332.92,54.17 333.23,54.10 333.55,54.08 333.86,54.27 334.18,54.21 334.50,54.40 334.81,54.33 335.13,54.53 335.44,54.69 335.76,54.41 336.08,54.60 336.39,54.76 336.71,54.48 337.02,54.67 337.34,54.61 337.66,54.80 337.97,54.99 338.29,54.93 338.60,55.15 338.92,55.09 339.24,55.31 339.55,55.46 339.87,55.68 340.18,55.86 340.50,56.09 340.82,56.27 341.13,56.52 341.45,56.49 341.76,56.92 342.08,56.89 342.40,57.07 342.71,57.50 343.03,57.68 343.34,57.86 343.66,58.08 343.98,58.25 344.29,58.43 344.61,58.65 344.92,58.83 345.24,59.00 345.56,59.18 345.87,59.60 346.19,59.78 346.50,59.95 346.82,60.13 347.14,60.51 347.45,60.68 347.77,61.06 348.08,61.23 348.40,61.16 348.72,62.03 349.03,61.95 349.35,62.08 349.66,62.21 349.98,62.55 350.30,62.92 350.61,63.26 350.93,63.63 351.24,64.00 351.56,64.13 351.88,64.70 352.19,65.06 352.51,65.63 352.82,65.96 353.14,66.52 353.46,67.08 353.77,67.64 354.09,68.19 354.40,68.74 354.72,69.72 355.04,70.23 355.35,71.20 355.67,71.74 355.98,72.28 356.30,72.77 356.62,73.27 356.93,74.40 357.25,75.30 357.56,76.20 357.88,76.68 358.20,77.38 358.51,78.12 358.83,79.02 359.14,80.29 359.46,81.54 359.78,82.36 360.09,83.63 360.41,84.50 360.72,85.37 361.04,85.83 361.36,86.66 361.67,87.48 361.99,88.27 362.30,89.42 362.62,90.73 362.94,92.21 363.25,93.49 363.57,94.82 363.88,95.63 364.20,96.93 364.52,97.69 364.83,98.82 365.15,99.78 365.46,100.89 365.78,101.65 366.10,102.74 366.41,103.49 366.73,104.36 367.04,104.39 367.36,104.21 367.68,104.38 367.99,105.48 368.31,106.68 368.62,107.53 368.94,108.39 369.26,109.57 369.57,110.39 369.89,111.51 370.20,112.97 370.52,114.73 370.84,116.90 371.15,119.30 371.47,121.42 371.78,123.99 372.10,126.88 372.42,129.31 372.73,132.01 373.05,134.46 373.36,137.18 373.68,138.90 374.00,142.20 374.31,145.76 374.63,149.90 374.94,153.41 375.26,158.28 375.58,163.14 375.89,167.64 376.21,172.61 376.52,176.15 376.84,180.94 377.16,185.32 377.47,189.60 377.79,194.25 378.10,198.82 378.42,201.75 378.74,205.31 379.05,209.84 379.37,213.60 379.68,217.33 380.00,220.29 380.32,223.72 380.63,227.07 380.95,230.16 381.26,232.72 381.58,234.91 381.90,237.45 382.21,239.89 382.53,241.86 382.84,244.23 383.16,246.18 383.48,248.07 383.79,249.86 384.11,251.29 384.42,252.67 384.74,254.12 385.06,255.51 385.37,256.85 385.69,257.92 386.00,258.90 386.32,259.93 386.64,260.97 386.95,261.94 387.27,262.65 387.58,263.59 387.90,264.52 388.22,265.19 388.53,265.85 388.85,266.24 389.16,266.85 389.48,267.46 389.80,267.81 390.11,268.37 390.43,268.71 390.74,269.00 391.06,269.33 391.38,269.64 391.69,269.92 392.01,270.23 392.32,270.53 392.64,270.82 392.96,270.89 393.27,271.18 393.59,271.20 393.90,271.22 394.22,271.24 394.54,271.48 394.85,271.52 395.17,271.52 395.48,271.54 395.80,271.30 396.12,271.33 396.43,271.31 396.75,271.34 397.06,271.11 397.38,271.15 397.70,270.89 398.01,270.66 398.33,270.38 398.64,270.35 398.96,270.14 399.28,269.69 399.59,269.42 399.91,269.15 400.22,268.70 400.54,268.24 400.86,267.75 401.17,267.06 401.49,266.56 401.80,266.04 402.12,265.35 402.44,264.88 402.75,264.15 403.07,263.43 403.38,262.95 403.70,261.96 404.02,261.43 404.33,260.67 404.65,259.92 404.96,259.34 405.28,258.29 405.60,257.79 405.91,257.05 406.23,256.27 406.54,255.44 406.86,254.89 407.18,254.07 407.49,253.25 407.81,252.64 408.12,251.47 408.44,250.88 408.76,249.98 409.07,249.03 409.39,248.16 409.70,247.46 410.02,246.55 410.34,245.47 410.65,244.49 410.97,243.79 411.28,242.80 411.60,241.74 411.92,241.08 412.23,239.95 412.55,239.13 412.86,237.94 413.18,237.19 413.50,236.39 413.81,235.21 414.13,234.43 414.44,233.64 414.76,232.35 415.08,231.54 415.39,230.67 415.71,229.79 416.02,228.94 416.34,227.67 416.66,227.13 416.97,225.77 417.29,224.78 417.60,224.32 417.92,223.41 418.24,221.94 418.55,221.37 418.87,220.37 419.18,219.38 419.50,218.35 419.82,217.32 420.13,216.75 420.45,215.70 420.76,214.67 421.08,214.13 421.40,213.02 421.71,212.39 422.03,211.36 422.34,210.19 422.66,209.59 422.98,208.34 423.29,207.74 423.61,206.72 423.92,206.11 424.24,204.87 424.56,204.27 424.87,203.67 425.19,202.48 425.50,201.82 425.82,201.21 426.14,200.08 426.45,199.42 426.77,198.80 427.08,198.19 427.40,196.90 427.72,196.28 428.03,195.66 428.35,194.96 428.66,194.32 428.98,193.68 429.30,192.89 429.61,192.23 429.93,191.85 430.24,191.26 430.56,190.75 430.88,190.24 431.19,189.69 431.51,189.10 431.82,188.61 432.14,187.92 432.46,187.42 432.77,186.77 433.09,186.33 433.40,185.75 433.72,185.15 434.04,184.55 434.35,184.01 434.67,183.32 434.98,182.68 435.30,182.29 435.62,181.51 435.93,181.21 436.25,180.57 436.56,180.01 436.88,179.54 437.20,178.90 437.51,178.37 437.83,177.66 438.14,177.30 438.46,176.66 438.78,176.11 439.09,175.66 439.41,175.35 439.72,174.81 440.04,174.42 440.36,173.69 440.67,173.14 440.99,172.46 441.30,171.71 441.62,171.11 441.94,170.78 442.25,170.17 442.57,169.74 442.88,169.21 443.20,168.68 443.52,168.14 443.83,167.69 444.15,167.03 444.46,166.57 444.78,166.02 445.10,165.56 445.41,165.05 445.73,164.74 446.04,164.18 446.36,163.98 446.68,163.49 446.99,163.10 447.31,162.52 447.62,162.12 447.94,161.63 448.26,161.32 448.57,160.92 448.89,160.61 449.20,160.12 449.52,159.90 449.84,159.51 450.15,159.00 450.47,158.60 450.78,158.10 451.10,157.78 451.42,157.59 451.73,157.18 452.05,156.95 452.36,156.65 452.68,156.42 453.00,156.11 453.31,156.09 453.63,155.65 453.94,155.30 454.26,154.89 454.58,154.76 454.89,154.44 455.21,154.20 455.52,153.88 455.84,154.00 456.16,153.59 456.47,153.37 456.79,153.09 457.10,153.00 457.42,152.72 457.74,152.61 458.05,152.46 458.37,152.57 458.68,152.16 459.00,152.29 459.32,152.41 459.63,152.43 459.95,152.32 460.26,152.75 460.58,152.76 460.90,152.94 461.21,152.93 461.53,153.47 461.84,153.68 462.16,153.88 462.48,154.11 462.79,154.40 463.11,154.73 463.42,155.06 463.74,155.29 464.06,155.81 464.37,156.04 464.69,156.56 465.00,156.86 465.32,156.83 465.64,155.59 465.95,156.11 466.27,156.30 466.58,156.66 466.90,157.05 467.22,157.54 467.53,157.81 467.85,158.20 468.16,158.59 468.48,159.08 468.80,159.45 469.11,160.15 469.43,160.54 469.74,160.93 470.06,161.53 470.38,162.02 470.69,162.53 471.01,163.21 471.32,163.62 471.64,164.21 471.96,164.61 472.27,165.01 472.59,165.43 472.90,166.10 473.22,166.50 473.54,167.05 473.85,167.54 474.17,168.03 474.48,168.67 474.80,169.23 475.12,169.69 475.43,170.31 475.75,170.78 476.06,171.13 476.38,171.58 476.70,172.01 477.01,172.46 477.33,173.08 477.64,173.34 477.96,173.75 478.28,174.27 478.59,174.79 478.91,175.15 479.22,175.66 479.54,175.92 479.86,176.33 480.17,176.58 480.49,177.06 480.80,177.39 481.12,177.84 481.44,178.14 481.75,178.44 482.07,178.72 482.38,179.01 482.70,179.21 483.02,179.56 483.33,179.59 483.65,179.68 483.96,179.81 484.28,180.00 484.60,179.89 484.91,179.91 485.23,179.88 485.54,180.05 485.86,180.00 486.18,179.80 486.49,179.88 486.81,179.91 487.12,180.03 487.44,180.13 487.76,180.21 488.07,180.32 488.39,180.42 488.70,180.66 489.02,180.97 489.34,181.23 489.65,181.38 489.97,181.78 490.28,182.04 490.60,182.28 490.92,182.68 491.23,183.16 491.55,183.49 491.86,183.70 492.18,184.01 492.50,184.41 492.81,184.81 493.13,185.13 493.44,185.33 493.76,185.70 494.08,185.86 494.39,186.06 494.71,186.15 495.02,186.47 495.34,186.63 495.66,186.72 495.97,186.73 496.29,186.82 496.60,186.88 496.92,186.89 497.24,186.67 497.55,186.40 497.87,186.53 498.18,186.47 498.50,186.39 498.82,186.40 499.13,186.08 499.45,185.94 499.76,185.96 500.08,185.89 500.40,185.93 500.71,185.86 501.03,186.04 501.34,186.15 501.66,186.41 501.98,186.60 502.29,186.70 502.61,186.57 502.92,186.52 503.24,186.55 503.56,186.37 503.87,186.43 504.19,186.31 504.50,186.26 504.82,186.14 505.14,186.12 505.45,185.93 505.77,185.62 506.08,185.51 506.40,185.42 506.72,185.09 507.03,185.02 507.35,184.80 507.66,184.70 507.98,184.46 508.30,184.38 508.61,184.31 508.93,184.39 509.24,184.38 509.56,184.38 509.88,184.37 510.19,184.46 510.51,184.40 510.82,184.32 511.14,184.11 511.46,184.26 511.77,184.19 512.09,184.18 512.40,184.18 512.72,183.95 513.04,184.04 513.35,184.04 513.67,183.96 513.98,184.03 514.30,183.87 514.62,183.85 514.93,183.88 515.25,184.17 515.56,184.12 515.88,184.12 516.20,184.24 516.51,184.58 516.83,184.64 517.14,184.78 517.46,184.98 517.78,185.02 518.09,185.05 518.41,185.37 518.72,185.54 519.04,185.70 519.36,186.26 519.67,186.73 519.99,187.42 520.30,188.20 520.62,188.59 520.94,189.07 521.25,189.61 521.57,190.82 521.88,192.08 522.20,192.63 522.52,193.74 522.83,195.52 523.15,196.74 523.46,197.82 523.78,199.47 524.10,201.16 524.41,202.82 524.73,204.53 525.04,206.15 525.36,208.84 525.68,210.44 525.99,214.07 526.31,216.66 526.62,219.45 526.94,221.72 527.26,224.84 527.57,227.25 527.89,230.41 528.20,233.12 528.52,237.43 528.84,240.89 529.15,244.18 529.47,247.94 529.78,251.26 530.10,255.27 530.42,258.88 530.73,264.41 531.05,268.41 531.36,272.32 531.68,275.96 532.00,280.19 532.31,283.66 532.63,288.88 532.94,292.51 533.26,295.87 533.58,299.09 533.89,302.37 534.21,306.21 534.52,309.11 534.84,311.61 535.16,313.96 535.47,316.24 535.79,318.84 536.10,320.71 536.42,322.33 536.74,323.77 537.05,325.01 537.37,326.73 537.68,327.75 538.00,328.68 538.32,329.63 538.63,330.56 538.95,331.44 539.26,332.02 539.58,332.58 539.90,333.11 540.21,333.62 540.53,334.09 540.84,334.36 541.16,334.79 541.48,335.02 541.79,335.42 542.11,335.61 542.42,335.81 542.74,335.99 543.06,336.15 543.37,336.31 543.69,336.46 544.00,336.46 544.32,336.62 544.64,336.62 544.95,336.75 545.27,336.76 545.58,336.76 545.90,336.75 546.22,336.89 546.53,336.89 546.85,336.90 547.16,336.89 547.48,336.76 547.80,336.76 548.11,336.77 548.43,336.79 548.74,336.66 549.06,336.67 549.38,336.53 549.69,336.53 550.01,336.39 550.32,336.23 550.64,336.23 550.96,336.05 551.27,335.88 551.59,335.70 551.90,335.50 552.22,335.47 552.54,335.26 552.85,335.05 553.17,334.83 553.48,334.61 553.80,334.39 554.12,334.17 554.43,333.94 554.75,333.71 555.06,333.48 555.38,333.24 555.70,333.00 556.01,332.77 556.33,332.52 556.64,332.27 556.96,332.01 557.28,331.75 557.59,331.25 557.91,331.22 558.22,330.69 558.54,330.40 558.86,330.36 559.17,329.88 559.49,329.58 559.80,329.21 560.12,328.94 560.44,328.50 560.75,328.23 561.07,327.98 561.38,327.53 561.70,327.21 562.02,326.81 562.33,326.50 562.65,326.03 562.96,325.75 563.28,325.29 563.60,324.95 563.91,324.65 564.23,324.17 564.54,323.82 564.86,323.35 565.18,323.05 565.49,322.57 565.81,322.26 566.12,321.81 566.44,321.45 566.76,321.05 567.07,320.72 567.39,320.24 567.70,319.90 568.02,319.46 568.34,319.13 568.65,318.67 568.97,318.35 569.28,317.86 569.60,317.50 569.92,317.22 570.23,316.70 570.55,316.18 570.86,315.83 571.18,315.36 571.50,315.00 571.81,314.53 572.13,314.23 572.44,313.72 572.76,313.43 573.08,312.99 573.39,312.69 573.71,312.17 574.02,311.87 574.34,311.45 574.66,311.17 574.97,310.69 575.29,310.49 575.60,310.13 575.92,309.84 576.24,309.46 576.55,309.00 576.87,308.87 577.18,308.48 577.50,308.25 577.82,307.87 578.13,307.81 578.45,307.41 578.76,307.10 579.08,306.85 579.40,306.62 579.71,306.48 580.03,306.05 580.34,305.99 580.66,305.67 580.98,305.43 581.29,305.28 581.61,305.04 581.92,304.97 582.24,304.62 582.56,304.28 582.87,304.23 583.19,303.98 583.50,303.92 583.82,303.76 584.14,303.50 584.45,303.44 584.77,303.18 585.08,303.00 585.40,302.82 585.72,302.65 586.03,302.57 586.35,302.37 586.66,301.98 586.98,302.00 587.30,301.58 587.61,301.60 587.93,301.21 588.24,300.90 588.56,300.81 588.88,300.52 589.19,300.23 589.51,300.05 589.82,299.75 590.14,299.46 590.46,299.27 590.77,299.10 591.09,298.67 591.40,298.58 591.72,298.25 592.04,297.93 592.35,297.68 592.67,297.47 592.98,296.98 593.30,296.86 593.62,296.50 593.93,296.25 594.25,295.99 594.56,295.62 594.88,295.38 595.20,295.26 595.51,294.89 595.83,294.67 596.14,294.42 596.46,294.31 596.78,293.93 597.09,293.69 597.41,293.45 597.72,293.34 598.04,292.95 598.36,292.84 598.67,292.57 598.99,292.33 599.30,292.06 599.62,291.95 599.94,291.66 600.25,291.42 600.57,291.14 600.88,291.04 601.20,290.76 601.52,290.52 601.83,290.38 602.15,289.97 602.46,289.86 602.78,289.59 603.10,289.46 603.41,289.18 603.73,289.09 604.04,288.81 604.36,288.53 604.68,288.56 604.99,288.28 605.31,288.00 605.62,287.86 605.94,287.74 606.26,287.60 606.57,287.31 606.89,287.17 607.20,286.88 607.52,286.58 607.84,286.29 608.15,286.32 608.47,286.02 608.78,285.86 609.10,285.56 609.42,285.41 609.73,285.26 610.05,285.14 610.36,285.00 610.68,284.85 611.00,284.54 611.31,284.40 611.63,284.26 611.94,284.31 612.26,284.00 612.58,283.87 612.89,283.73 613.21,283.77 613.52,283.63 613.84,283.50 614.16,283.56 614.47,283.42 614.79,283.29 615.10,283.16 615.42,283.03 615.74,282.89 616.05,282.96 616.37,283.00 616.68,282.87 617.00,282.74 617.32,282.60 617.63,282.47 617.95,282.35 618.26,282.21 618.58,282.26 618.90,282.14 619.21,282.02 619.53,281.91 619.84,281.97 620.16,281.86 620.48,281.76 620.79,281.84 621.11,281.76 621.42,281.68 621.74,281.76 622.06,281.48 622.37,281.58 622.69,281.50 623.00,281.60 623.32,281.31 623.64,281.40 623.95,281.31 624.27,281.19 624.58,281.11 624.90,281.18 625.22,280.88 625.53,280.97 625.85,280.85 626.16,280.76 626.48,280.47 626.80,280.36 627.11,280.28 627.43,280.17 627.74,280.27 628.06,279.99 628.38,280.10 628.69,279.80 629.01,279.68 629.32,279.78 629.64,279.46 629.96,279.55 630.27,279.41 630.59,279.27 630.90,279.33 631.22,279.17 631.54,279.00 631.85,279.06 632.17,278.86 632.48,278.91 632.80,278.52 633.12,278.55 633.43,278.34 633.75,278.12 634.06,278.12 634.38,277.89 634.70,277.89 635.01,277.64 635.33,277.63 635.64,277.38 635.96,277.37 636.28,277.12 636.59,277.09 636.91,276.82 637.22,276.80 637.54,276.77 637.86,276.50 638.17,276.67 638.49,276.64 638.80,276.60 639.12,276.33 639.44,276.30 639.75,276.28 640.07,276.23 640.38,276.20 640.70,276.42 641.02,276.59 641.33,276.56 641.65,276.77 641.96,277.00 642.28,277.40 642.60,277.37 642.91,277.60 643.23,278.05 643.54,278.44 643.86,278.66 644.18,279.10 644.49,279.50 644.81,279.95 645.12,280.16 645.44,280.79 645.76,281.23 646.07,281.84 646.39,282.27 646.70,283.08 647.02,283.49 647.34,284.29 647.65,284.70 647.97,285.27 648.28,285.85 648.60,286.40 648.92,287.13 649.23,287.50 649.55,288.20 649.86,288.71 650.18,289.25 650.50,289.74 650.81,290.41 651.13,290.75 651.44,291.41 651.76,291.74 652.08,292.20 652.39,292.85 652.71,293.32 653.02,293.78 653.34,294.24 653.66,294.56 653.97,295.02 654.29,295.47 654.60,296.06 654.92,296.49 655.24,296.65 655.55,297.07 655.87,297.35 656.18,297.89 656.50,298.14 656.82,298.55 657.13,298.70 657.45,298.96 657.76,299.24 658.08,299.49 658.40,299.90 658.71,300.16 659.03,300.42 659.34,300.82 659.66,301.22 659.98,301.58 660.29,301.84 660.61,302.35 660.92,302.73 661.24,302.98 661.56,303.22 661.87,303.70 662.19,303.94 662.50,304.18 662.82,304.42 663.14,304.76 663.45,305.11 663.77,305.44 664.08,305.67 664.40,305.90 664.72,306.13 665.03,306.45 665.35,306.68 665.66,306.99 665.98,307.10 666.30,307.41 666.61,307.52 666.93,307.72 667.24,307.73 667.56,307.93 667.88,308.03 668.19,308.14 668.51,308.15 668.82,308.45 669.14,308.35 669.46,308.56 669.77,308.66 670.09,308.78 670.40,308.77 670.72,308.90 671.04,309.12 671.35,309.31 671.67,309.44 671.98,309.55 672.30,309.77 672.62,309.98 672.93,310.01 673.25,310.41 673.56,310.63 673.88,310.76 674.20,310.97 674.51,311.29 674.83,311.50 675.14,311.72 675.46,312.10 675.78,312.32 676.09,312.53 676.41,312.71 676.72,313.01 677.04,313.35 677.36,313.46 677.67,313.73 677.99,313.90 678.30,314.07 678.62,314.24 678.94,314.48 679.25,314.55 679.57,314.71 679.88,314.78 680.20,314.93 680.52,315.14 680.83,315.13 681.15,315.28 681.46,315.43 681.78,315.57 682.10,315.63 682.41,315.83 682.73,315.89 683.04,315.86 683.36,316.01 683.68,316.07 683.99,316.34 684.31,316.38 684.62,316.44 684.94,316.50 685.26,316.70 685.57,316.84 685.89,316.98 686.20,317.20 686.52,317.26 686.84,317.46 687.15,317.60 687.47,317.81 687.78,317.88 688.10,318.15 688.42,318.17 688.73,318.38 689.05,318.58 689.36,318.65 689.68,318.91 690.00,319.05 690.31,319.26 690.63,319.32 690.94,319.63 691.26,319.77 691.58,319.90 691.89,320.04 692.21,320.35 692.52,320.50 692.84,320.69 693.16,320.84 693.47,321.15 693.79,321.43 694.10,321.63 694.42,321.71 694.74,322.03 695.05,322.18 695.37,322.40 695.68,322.56 696.00,322.90"/>
  <text x="64" y="24" font-family="Georgia, serif" font-size="20" fill="#111">Basic Scene Reflectance Spectrum</text>
  <text x="360.0" y="406" text-anchor="middle" font-family="Georgia, serif" font-size="15" fill="#333">Wavelength (nm)</text>
  <text x="18" y="210.0" transform="rotate(-90 18 210.0)" text-anchor="middle" font-family="Georgia, serif" font-size="15" fill="#333">rsot (-)</text>
  <text x="64" y="390" font-family="monospace" font-size="12" fill="#555">400</text>
  <text x="696" y="390" text-anchor="end" font-family="monospace" font-size="12" fill="#555">2400</text>
  <text x="56" y="368" text-anchor="end" dominant-baseline="middle" font-family="monospace" font-size="12" fill="#555">0.0315</text>
  <text x="56" y="36" text-anchor="end" dominant-baseline="middle" font-family="monospace" font-size="12" fill="#555">0.429</text>
</svg>
